<svg width="128" height="156" viewBox="0 0 128 156" fill="none" xmlns="http://www.w3.org/2000/svg">
<path fill-rule="evenodd" clip-rule="evenodd" d="M63.9992 155.5L63.9992 0C1.78862 54.6174 -10.9934 79.5079 8.25033 113C8.25033 113 36.2492 155.5 63.9992 155.5ZM64 155.5L64 0C126.211 54.6174 138.993 79.5079 119.749 113C119.749 113 91.75 155.5 64 155.5Z" fill="#01A24B"/>
<path d="M78.7969 85.1406V71.6875C78.7969 69.8438 78.4375 68.1094 77.7188 66.4844C77.0312 64.8281 76.0781 63.3906 74.8594 62.1719C73.6406 60.9531 72.2031 60 70.5469 59.3125C68.9219 58.5938 67.1875 58.2344 65.3438 58.2344C63.5 58.2344 61.75 58.5938 60.0938 59.3125C58.4688 60 57.0469 60.9531 55.8281 62.1719C54.6094 63.3906 53.6406 64.8281 52.9219 66.4844C52.2344 68.1094 51.8906 69.8438 51.8906 71.6875V85.1406H78.7969ZM92.25 112H78.7969V98.5469H51.8906V112H38.4844V71.6875C38.4844 67.9688 39.1875 64.4844 40.5938 61.2344C42 57.9531 43.9062 55.0938 46.3125 52.6562C48.75 50.2188 51.5938 48.2969 54.8438 46.8906C58.125 45.4844 61.625 44.7812 65.3438 44.7812C69.0625 44.7812 72.5469 45.4844 75.7969 46.8906C79.0781 48.2969 81.9375 50.2188 84.375 52.6562C86.8125 55.0938 88.7344 57.9531 90.1406 61.2344C91.5469 64.4844 92.25 67.9688 92.25 71.6875V112Z" fill="white"/>
<path d="M121.5 112L91 112L91 97L127 97L121.5 112Z" fill="white"/>
<line x1="44.6799" y1="54.3841" x2="38.6799" y2="49.3841" stroke="white"/>
<path d="M39 49.5L33 49.5" stroke="white"/>
<circle cx="32.5" cy="49.5" r="1" fill="#6FCD9A" stroke="white"/>
<line y1="-0.5" x2="7.81025" y2="-0.5" transform="matrix(0.768221 -0.640184 -0.640184 -0.768221 91 72)" stroke="white"/>
<path d="M97 67.5L103 67.5" stroke="white"/>
<circle r="1" transform="matrix(-1 0 0 1 103.5 67.5)" fill="#6FCD9A" stroke="white"/>
<path d="M40 105.542L28.9973 105.542" stroke="white"/>
<path d="M29.1271 105.561L24.4974 101.744" stroke="white"/>
<circle r="1" transform="matrix(0.771624 0.636079 0.636079 -0.771624 24.1116 101.426)" fill="#6FCD9A" stroke="white"/>
</svg>
