<svg xmlns="http://www.w3.org/2000/svg" width="544.563" height="356.447" viewBox="0 0 544.563 356.447">
  <g id="Group_15149" data-name="Group 15149" transform="translate(-1500.041 -1349.881)">
    <path id="Path_72598" data-name="Path 72598" d="M2044.6,3548.356H1500.041v185.33H2044.6v-185.33Z" transform="translate(0 -2027.357)" fill="#9bd088"/>
    <path id="Path_72599" data-name="Path 72599" d="M2358.4,3732.44c0-34.882-25.249-63.2-56.349-63.2H2018.106c-31.1,0-56.35,28.32-56.35,63.2s25.25,63.2,56.35,63.2H2302.05c31.1,0,56.349-28.32,56.349-63.2Z" transform="translate(-376.358 -2109.366)" fill="#86c171"/>
    <g id="Group_15254" data-name="Group 15254" transform="translate(1046.856 1275.131)">
      <g id="Group_15250" data-name="Group 15250" transform="translate(740.085 316.789)">
        <path id="Path_73097" data-name="Path 73097" d="M964.437,725.316h106.44a13.669,13.669,0,0,0-.343-12.487,13.893,13.893,0,0,0-14.078-6.678c2.545-3.919,2.368-9.2.382-13.506a14.675,14.675,0,0,0-10.924-8.207,14.078,14.078,0,0,0-12.611,4.688c-1.73-7.008-5.533-14.187-12.006-17.441a17.894,17.894,0,0,0-8.656-1.834c-4.245.172-7.606,4.965-10.242,8.234-3.9,4.852-2.974,11.284-2.152,17.523-5.379-3.018-12.055-1.56-16.293,2.767-4.23,4.342-3.448,10.064-.307,15.371-4.769.266-10.761,1.984-13.527,5.841C968.745,721.491,964.864,723,964.437,725.316Z" transform="translate(-964.126 -669.836)" fill="#64a53a"/>
        <path id="Path_73098" data-name="Path 73098" d="M963.671,725.585h65.711a24.837,24.837,0,0,1-5.735-3.321,13.967,13.967,0,0,1-5.064-7.877A17.112,17.112,0,0,1,1000.82,724.8c-3.032-.422-6.1-1.852-7.642-4.493s-1.024-6.9,1.688-8.314a7.636,7.636,0,0,1-.82-13.324,10.29,10.29,0,0,1,5.814-1.406,31.642,31.642,0,0,1,6.111.867,17.954,17.954,0,0,1,6.791-27.843,14.928,14.928,0,0,0-11.034,5.111c-3.977,4.837-4.134,11.722-3.43,17.942a14.678,14.678,0,0,0-16.989,2.461,14.469,14.469,0,0,0-2.227,16.887,17.166,17.166,0,0,0-12.581,6.463A16.243,16.243,0,0,0,963.671,725.585Z" transform="translate(-963.671 -670.106)" fill="#3a6d19"/>
      </g>
      <g id="Group_15251" data-name="Group 15251" transform="translate(585.868 245.392)">
        <path id="Path_73099" data-name="Path 73099" d="M688.121,592.571c.2,7.887.2,15.74-.089,23.538-33.357-.177-66.378-1.258-99.736-1.435a29.912,29.912,0,0,1,3.439-34.049c8.135-9.092,22.386-12.017,33.552-7.072a26.944,26.944,0,0,1-.868-15.42,19.8,19.8,0,0,1,9.092-12.23c4.555-2.553,10.617-3.244,15.172-.709a22.984,22.984,0,0,1-.248-17.583c2.251-5.566,7.781-10.564,13.346-12.868-4.75-5.229-4.431-14.5-.053-20.029,4.378-5.548,11.68-8.153,18.734-8.313,3.9-.071,8.118.656,10.847,3.456,2.659,2.73,3.332,6.948,2.641,10.706s-2.534,7.178-4.36,10.546a32.647,32.647,0,0,1,20.9,22.191c-8.791-.142-17.512-.107-26.25-.142C685.906,552.939,687.625,572.861,688.121,592.571Z" transform="translate(-584.508 -486.397)" fill="#84c45b"/>
        <path id="Path_73100" data-name="Path 73100" d="M603.693,630.534c32.672.174,65,1.234,97.67,1.4.275-7.643.275-15.331.084-23.058a22.121,22.121,0,0,1-13.076,1.667,21.115,21.115,0,0,1-16.438-16.122c-1.543,4.1-3.165,8.233-5.752,11.762s-6.291,6.459-10.607,7.2-9.209-1.117-11.207-5.017a9.244,9.244,0,0,1,.09-8.362,10.184,10.184,0,0,1,6.65-5.152,14.049,14.049,0,0,1,2.34-23.081c6.106-3.322,13.446-1.6,19.883,1.027a36.432,36.432,0,0,1-4.024-18.849c.235-3.99,1.218-8.109,3.839-11.128s7-4.573,10.607-2.839a37.253,37.253,0,0,1-5.59-25.09c.084-.6.191-1.212.337-1.818a16.33,16.33,0,0,0-3.362,6.661,26.522,26.522,0,0,0,.511,12.929c-5.438,2.256-10.865,7.149-13.071,12.615a22.527,22.527,0,0,0,.247,17.211c-4.462-2.492-10.394-1.812-14.849.69a19.342,19.342,0,0,0-8.906,11.981,26.4,26.4,0,0,0,.836,15.1c-10.926-4.832-24.884-1.975-32.847,6.931A29.282,29.282,0,0,0,603.693,630.534Z" transform="translate(-593.687 -502.225)" fill="#3a6d19" opacity="0.5"/>
      </g>
      <path id="Path_73101" data-name="Path 73101" d="M876.483,403.564a26.191,26.191,0,0,0-24.914,9.309,24.007,24.007,0,0,0-5.3,12.086c-1.007,7.7.824,14.736-4.663,21.227-7.07,8.364-15.482,13.28-16.358,25.258-.922,12.609,6.188,23.492,13.87,32.8,1.419,1.719,3.856-.742,2.448-2.447-7.49-9.073-14.737-20.2-12.6-32.566,1.773-10.249,10.654-14.521,16.37-22.181,6.025-8.075,2.147-17.085,5.365-25.873A22.807,22.807,0,0,1,875.563,406.9C877.741,407.289,878.676,403.954,876.483,403.564Z" transform="translate(-141.415 -194.835)" fill="#3e3e63"/>
      <path id="Path_73102" data-name="Path 73102" d="M980.013,531.048c-5.413-6.956-9.485-13.712-9.749-22.769a32.726,32.726,0,0,1,7.664-21.95c1.419-1.7-1.017-4.159-2.447-2.447a36.659,36.659,0,0,0-8.14,29.859c2.388,13.669,14.947,21.52,18.164,34.715,3.375,13.844-2.106,28.931-12.73,38.163-10.843,9.422-25.635,12.683-39.668,11.236-2.213-.228-2.2,3.234,0,3.461,25.153,2.594,51.973-11.222,56.266-37.862C991.358,551.132,987.516,540.688,980.013,531.048Z" transform="translate(-204.473 -242.382)" fill="#fbc96a"/>
      <path id="Path_73103" data-name="Path 73103" d="M853.354,303.114c-4.358-6.047-9.757-13.132-17.727-14.093-6.744-.814-12.638,3.373-15.98,8.977-3.843,6.444-4.7,15.266-.052,21.516,2.415,3.25,5.97,5.261,9.032,7.806,5.227,4.344,6.865,9.879,4.75,16.379-4.65,14.293-29.178,26.432-19.753,44.26,3.855,7.291,13.641,8.324,18.85,14.639a28.082,28.082,0,0,1,4.8,27.179c-.742,2.1,2.6,3.009,3.338.92a31.461,31.461,0,0,0-10.091-34.785c-6.415-4.989-15.356-5.784-15.167-15.986.184-10,8.534-16.639,14.45-23.688,4.292-5.115,7.943-11.185,8.013-18.063.068-6.526-3.512-10.744-8.4-14.593-4.662-3.674-9.121-6.616-9.523-13.155a19.083,19.083,0,0,1,5.351-14.1c9.561-9.478,19.346.525,25.117,8.532C851.656,306.651,854.66,304.926,853.354,303.114Z" transform="translate(-133.301 -127.061)" fill="#fbc96a"/>
      <path id="Path_73104" data-name="Path 73104" d="M866.635,407.808V549.794H765.662L831.8,373.982l12.414,12.056Z" transform="translate(-106.114 -177.525)" fill="#7893c1"/>
      <path id="Path_73105" data-name="Path 73105" d="M891.355,425.394V567.38H807.331l61.608-163.757Z" transform="translate(-130.835 -195.111)" fill="#9cbfe2"/>
      <path id="Path_73106" data-name="Path 73106" d="M993.114,311.294l-33.569,33.569c-2.979,2.98-20.33-9.537-38.746-27.953s-30.926-35.76-27.946-38.739L926.421,244.6c2.979-2.979,20.323,9.53,38.739,27.946S996.094,308.314,993.114,311.294Z" transform="translate(-181.312 -100.507)" fill="#7893c1"/>
      <path id="Path_73107" data-name="Path 73107" d="M1024.065,270.888l-37.507,37.5a2.583,2.583,0,0,1-2.354.4c-5.676-1.027-19.175-10.9-34.23-25.116-2.215-2.088-4.453-4.269-6.7-6.518-20.571-20.57-34.542-39.941-31.219-43.276L935.934,210l13.625-13.614c1.385-1.384,5.561.231,11.445,4.073,8.238,5.388,19.821,15.136,31.831,27.147C1013.405,248.171,1027.388,267.553,1024.065,270.888Z" transform="translate(-192.673 -71.87)" fill="#b3cbe8"/>
      <g id="Group_15253" data-name="Group 15253" transform="translate(705.988 301.616)">
        <rect id="Rectangle_6066" data-name="Rectangle 6066" width="48.3" height="38.26" rx="5.636" fill="#7893c1"/>
        <rect id="Rectangle_6067" data-name="Rectangle 6067" width="40.206" height="31.848" rx="4.691" transform="translate(4.047 3.206)" fill="#3e3e63"/>
        <g id="Group_15252" data-name="Group 15252" transform="translate(8.474 7.005)">
          <path id="Path_73108" data-name="Path 73108" d="M914.176,649.755H901.684a1.048,1.048,0,0,0,0,2.1h12.492A1.048,1.048,0,0,0,914.176,649.755Z" transform="translate(-900.673 -649.755)" fill="#fff"/>
          <path id="Path_73109" data-name="Path 73109" d="M943.08,651.85h12.492a1.048,1.048,0,0,0,0-2.1H943.08A1.048,1.048,0,0,0,943.08,651.85Z" transform="translate(-925.232 -649.755)" fill="#fff"/>
          <path id="Path_73110" data-name="Path 73110" d="M914.176,687.146H901.684a1.048,1.048,0,0,0,0,2.095h12.492A1.048,1.048,0,0,0,914.176,687.146Z" transform="translate(-900.673 -671.938)" fill="#fff"/>
          <path id="Path_73111" data-name="Path 73111" d="M955.573,687.146H943.08a1.048,1.048,0,0,0,0,2.095h12.492A1.048,1.048,0,0,0,955.573,687.146Z" transform="translate(-925.232 -671.938)" fill="#fff"/>
          <path id="Path_73112" data-name="Path 73112" d="M914.176,698.21H901.684a1.048,1.048,0,0,0,0,2.095h12.492A1.048,1.048,0,0,0,914.176,698.21Z" transform="translate(-900.673 -678.502)" fill="#fff"/>
          <path id="Path_73113" data-name="Path 73113" d="M955.573,698.21H943.08a1.048,1.048,0,0,0,0,2.095h12.492A1.048,1.048,0,0,0,955.573,698.21Z" transform="translate(-925.232 -678.502)" fill="#fff"/>
        </g>
        <rect id="Rectangle_6068" data-name="Rectangle 6068" width="23.108" height="5.897" rx="2.194" transform="translate(12.596 12.224)" fill="#ffce45"/>
      </g>
      <ellipse id="Ellipse_124" data-name="Ellipse 124" cx="8.529" cy="52.686" rx="8.529" ry="52.686" transform="translate(750.846 130.539) rotate(-45)" fill="#7893c1"/>
      <path id="Path_73114" data-name="Path 73114" d="M1140.732,191.138S1019.723,200.112,1024.889,75.3Z" transform="translate(-259.81 -0.324)" fill="#d3b8bd"/>
      <path id="Path_73115" data-name="Path 73115" d="M1140.639,190.814c-2.735,2.734-29.962-20.063-61.227-51.166l-3.45-3.45c-31.1-31.277-53.9-58.493-51.167-61.227s30.1,20.178,61.469,51.4l1.488,1.488,1.488,1.488C1120.461,160.715,1143.373,188.08,1140.639,190.814Z" transform="translate(-259.718 0)" fill="#f2dfe2"/>
      <path id="Path_73116" data-name="Path 73116" d="M1192.719,135.355a3.884,3.884,0,0,1-4.43.738L1164.2,161.382l-9.83,10.3-3.449-3.45,10.3-9.829,25.289-24.089a3.868,3.868,0,0,1,5.561-4.949,3.841,3.841,0,0,1,1.165,1.165A3.854,3.854,0,0,1,1192.719,135.355Z" transform="translate(-334.676 -32.037)" fill="#d3b8bd"/>
      <path id="Path_73117" data-name="Path 73117" d="M1108.008,383.551q-13.066,12.018-25.468,24.717c-1.557,1.595.888,4.044,2.448,2.447q12.4-12.7,25.468-24.717C1112.1,384.487,1109.646,382.044,1108.008,383.551Z" transform="translate(-293.812 -182.922)" fill="#c5e5ff"/>
      <path id="Path_73118" data-name="Path 73118" d="M996.564,500.322l-.007,42.975a1.732,1.732,0,0,0,3.461,0l.007-42.975A1.731,1.731,0,0,0,996.564,500.322Z" transform="translate(-243.097 -251.487)" fill="#c5e5ff"/>
      <path id="Path_73096" data-name="Path 73096" d="M1026.484,801.5c0,1.8-60.395,3.259-134.895,3.259S756.7,803.3,756.7,801.5s60.394-3.259,134.895-3.259S1026.484,799.7,1026.484,801.5Z" transform="translate(-174.429 -429.225)" fill="#7da1b7"/>
    </g>
  </g>
</svg>
