<svg xmlns="http://www.w3.org/2000/svg" xmlns:xlink="http://www.w3.org/1999/xlink" width="234" height="180.884" viewBox="0 0 234 180.884"><defs><style>.a,.k{fill:#643f31;}.a,.b{clip-rule:evenodd;}.b,.c{fill:none;}.d{fill:#9bd088;}.aa,.ab,.ac,.d,.e,.f,.g,.h,.i,.j,.k,.l,.m,.n,.o,.q,.s,.u,.v,.x,.y{fill-rule:evenodd;}.e{fill:#86c171;}.f{fill:#65aa4c;}.g{fill:#7b8f0d;}.h{fill:#676c01;}.i{fill:#241c00;}.j{fill:#a34822;}.l{fill:#3f6e87;}.m{fill:#573122;}.n{fill:#040404;}.o{fill:#f6f7be;}.p{clip-path:url(#a);}.q{fill:#442c06;}.r{clip-path:url(#b);}.s{fill:#cc673e;}.t{clip-path:url(#c);}.u{fill:#b84f24;}.v{fill:#d88b6c;}.w{clip-path:url(#d);}.x{fill:#b45934;}.y{fill:#59331c;}.z{clip-path:url(#e);}.aa{fill:#b45a34;}.ab{fill:#4d372f;}.ac{fill:#b56342;}</style><clipPath id="a"><path class="a" d="M2435.163,3186.127c-4.115,9.366-8.283,18.23-21.536,21.018a6.1,6.1,0,0,0-3.393,2.912,7.925,7.925,0,0,0,2.047,3.137l2.455-3.744c10.615-2.539,17.249-5.785,23.327-16.309.244-.421,1.1-5.495-2.9-7.014Z" transform="translate(-2410.234 -3186.127)"/></clipPath><clipPath id="b"><path class="b" d="M1681.359,3452.733h52.962v35.156h-52.962v-35.156Z" transform="translate(-1670.174 -3452.733)"/></clipPath><clipPath id="c"><path class="c" d="M8.749,35.156A8.793,8.793,0,0,1,0,26.367V8.789A8.793,8.793,0,0,1,8.789,0H51.7V35.156Z"/></clipPath><clipPath id="d"><path class="b" d="M2702.554,3382.267h-25.81V3397.8h25.81v-15.538Z" transform="translate(-2676.744 -3382.267)"/></clipPath><clipPath id="e"><path class="b" d="M2683.449,3382.267h42.228v12.628h-42.228v-12.628Z" transform="translate(-2683.449 -3382.267)"/></clipPath></defs><g transform="translate(-1500.041 -1369.774)"><path class="d" d="M1734.041,3548.355h-234v115.9h234v-115.9Z" transform="translate(0 -2113.6)"/><path class="e" d="M2132.194,3700.7c0-17.367-10.85-31.467-24.213-31.467H1985.969c-13.364,0-24.214,14.1-24.214,31.467s10.85,31.467,24.214,31.467h122.011c13.364,0,24.213-14.1,24.213-31.467Z" transform="translate(-398.153 -2217.778)"/><path class="f" d="M3830.677,3775.5a2.157,2.157,0,0,0-2.156-2.156h-51.593a2.156,2.156,0,0,0,0,4.312h51.593a2.157,2.157,0,0,0,2.156-2.156Z" transform="translate(-2100.723 -2307.556)"/><path class="f" d="M3788.464,3996.646a2.157,2.157,0,0,0-2.156-2.156h-51.592a2.156,2.156,0,0,0,0,4.312h51.592a2.157,2.157,0,0,0,2.156-2.156Z" transform="translate(-2061.764 -2511.648)"/><path class="f" d="M3564.271,3892.846a2.157,2.157,0,0,0-2.156-2.156h-51.593a2.156,2.156,0,1,0,0,4.311h51.593a2.157,2.157,0,0,0,2.156-2.155Z" transform="translate(-1854.856 -2415.851)"/><g transform="translate(1608.606 1369.774)"><path class="g" d="M3723.654,3183.972s13.742,3.341,7.331,13.78c0,0-6.659-5.27-7.331-13.78Z" transform="translate(-3648.093 -3160.285)"/><path class="g" d="M3625.624,3181.807s-14.235-.676-11.923,11.016c0,0,8.215-3.135,11.923-11.016Z" transform="translate(-3549.596 -3158.344)"/><path class="g" d="M3607.6,3158.546s-4.805-6.882-14.2-.016c0,0,9.431-.079,14.2.016Z" transform="translate(-3531.676 -3134.823)"/><path class="g" d="M3723.568,3175.258s8.21-4.684,14.061,5.624c0,0-9.293-3.819-14.061-5.624Z" transform="translate(-3648.016 -3151.548)"/><path class="g" d="M3723.7,3139.328s4.9.331,8.162-5.218a7.326,7.326,0,0,0-8.162,5.218Z" transform="translate(-3648.135 -3115.652)"/><path class="g" d="M3703.317,3112.677a6.589,6.589,0,0,0-1.953-8.633,6.7,6.7,0,0,0,1.953,8.633Z" transform="translate(-3627.437 -3088.85)"/><path class="h" d="M3582.027,3184.633c.709-.851-2.969,23.584-14.233,31.9l-2.659-.128s9.364-5.468,16.892-31.775Z" transform="translate(-3506.418 -3160.857)"/><path class="g" d="M3435.133,3059.563s18.952-1.139,16.228,15.128c0,0-11.046-4.237-16.228-15.128Z" transform="translate(-3390.229 -3049.081)"/><path class="g" d="M3340.478,3055.191s-18.213,4.831-9.35,19.238c0,0,8.715-7.412,9.35-19.238Z" transform="translate(-3295.102 -3045.188)"/><path class="g" d="M3289.561,3042.26s-9.541-7.1-17.835,5.685c0,0,11.8-3.892,17.835-5.685Z" transform="translate(-3244.185 -3031.876)"/><path class="g" d="M3435.133,3028.675s7.917-9.442,20.517,1.728c0,0-13.613-1.277-20.517-1.728Z" transform="translate(-3390.229 -3018.159)"/><path class="g" d="M3434.981,2974.411s6.318-1.533,7.585-10.121c0,0-8.034.91-7.585,10.121Z" transform="translate(-3390.077 -2963.946)"/><path class="g" d="M3381.483,2971.593a9.913,9.913,0,0,0-6.853-10.538s-1.117,7.321,6.853,10.538Z" transform="translate(-3336.107 -2961.055)"/><path class="h" d="M3394.067,3060.273c.456-1.4,8.3,32.126-1.6,47.561l-3.4.9s8.966-10.933,5-48.462Z" transform="translate(-3349.057 -3049.692)"/><path class="g" d="M3976.8,3059.563s18.952-1.139,16.228,15.128c0,0-11.045-4.237-16.228-15.128Z" transform="translate(-3874.338 -3049.081)"/><path class="g" d="M3882.141,3055.191s-18.213,4.831-9.349,19.238c0,0,8.714-7.412,9.349-19.238Z" transform="translate(-3779.21 -3045.188)"/><path class="g" d="M3831.221,3042.26s-9.541-7.1-17.836,5.685c0,0,11.8-3.892,17.836-5.685Z" transform="translate(-3728.29 -3031.876)"/><path class="g" d="M3976.8,3028.675s7.916-9.442,20.517,1.728c0,0-13.613-1.277-20.517-1.728Z" transform="translate(-3874.338 -3018.159)"/><path class="g" d="M3976.644,2974.411s6.318-1.533,7.585-10.121c0,0-8.034.91-7.585,10.121Z" transform="translate(-3874.184 -2963.946)"/><path class="g" d="M3923.148,2971.593a9.913,9.913,0,0,0-6.853-10.538s-1.117,7.321,6.853,10.538Z" transform="translate(-3820.217 -2961.055)"/><path class="h" d="M3935.733,3060.273c.457-1.4,8.3,32.126-1.6,47.561l-3.4.9s8.966-10.933,5-48.462Z" transform="translate(-3833.167 -3049.692)"/><path class="g" d="M3090.047,3138.887s-13.732,5.985-4.58,16.362a22.8,22.8,0,0,0,4.58-16.362Z" transform="translate(-3074.907 -3119.991)"/><path class="g" d="M3152.213,3142.3s15.2-1.357,13.479,11.779c0,0-9-3.147-13.479-11.779Z" transform="translate(-3137.372 -3123.006)"/><path class="g" d="M3156.6,3109.1s3.5-8.365,14.98-2.414c0,0-9.968,1.506-14.98,2.414Z" transform="translate(-3141.297 -3089.3)"/><path class="g" d="M3027.044,3136.419s-9.219-4.683-14.505,7.174c0,0,9.577-4.855,14.505-7.174Z" transform="translate(-3012.539 -3116.97)"/><path class="g" d="M3081.75,3098.09s-4.531,2.031-9.012-5.141c0,0,4.113-1.329,9.012,5.141Z" transform="translate(-3066.341 -3078.834)"/><path class="g" d="M3142.737,3065.224s-4.4-2.242-.245-9.569c0,0,3.52,2.322.245,9.569Z" transform="translate(-3127.085 -3045.603)"/><path class="h" d="M3153.422,3143.8s8.559,25.095,20.892,32.036l4.2-.009s-11.13-4.421-25.092-32.027Z" transform="translate(-3138.452 -3124.384)"/></g><path class="d" d="M2777.155,3454.088v-8.412l-108.545-.01c-.806,0-1.459,3.773-1.459,8.422s.654,8.421,1.459,8.421l108.545-.281v-8.139Z" transform="translate(-1043.113 -2024.984)"/><g transform="translate(1490.002 1383.182)"><path class="i" d="M2377.954,3382.963a1,1,0,0,1,.171-1.419,1.03,1.03,0,0,1,1.435.173l6.575,8.288a1,1,0,0,1-.171,1.419,1.03,1.03,0,0,1-1.435-.173l-6.575-8.287Z" transform="translate(-2312.588 -3352.68)"/><path class="i" d="M2316.148,3431.607l1.423,1.991-9.542,6.665-1.422-1.991,9.541-6.666Z" transform="translate(-2248.113 -3398.255)"/><path class="j" d="M2521.785,3520.675c.283-2.215.913-4.569,4.287-4.8l13.693-.14.123,25.655-18.1-.281v-20.429Z" transform="translate(-2443.16 -3474.507)"/><path class="k" d="M2332.053,3475.438l-4.787,2.525-7.146,23.064-8.913,4.017,10.543.487,12.216-29.188-1.913-.9Z" transform="translate(-2252.283 -3437.985)"/><path class="l" d="M2468.206,3443.886V3435.8a43.952,43.952,0,0,0-14.823,0s-4.757.862-9.564,8.573c-1.741,2.792,4.394,10.948,5.7,8.4a41.329,41.329,0,0,0,3.314-8.254l15.377-.635Z" transform="translate(-2372.208 -3401.487)"/><path class="m" d="M2637.022,3098.331l4.351.073-.151,10.634-4.351-.073.151-10.634Z" transform="translate(-2547.48 -3096.157)"/><path class="k" d="M2616.07,3090.466l-.06,7.818s5.408.388,5.572-3.232l-.152-4.3-5.359-.287Z" transform="translate(-2528.571 -3089.029)"/><path class="n" d="M2602.74,3076.536c.809,1.973,2.461,3.092,5.571,4.021.18-1.237,1.333-.684,1.124.729l.227,2.852c1.6-.707,1.727-7.263,1.31-7.6-2.629-2.129-5.374-1.692-8.232,0Z" transform="translate(-2516.542 -3075.098)"/><path class="o" d="M2595.619,3186.127s7.482,1.307.692,24.622c-1.981.349-4.634-.125-7.878-1.323l-1.463-5.851s-.724-16.215,8.649-17.448Z" transform="translate(-2502.236 -3175.74)"/><g transform="translate(68.188 10.387)"><path class="k" d="M2435.163,3186.127c-4.115,9.366-8.283,18.23-21.536,21.018a6.1,6.1,0,0,0-3.393,2.912,7.925,7.925,0,0,0,2.047,3.137l2.455-3.744c10.615-2.539,17.249-5.785,23.327-16.309.244-.421,1.1-5.495-2.9-7.014Z" transform="translate(-2410.234 -3186.127)"/><g class="p" transform="translate(0)"><path class="o" d="M2599.666,3180.182c5.075,1.343,7.859,5.378,10.081,10.073l1.568-10.094s1.727-4.242.338-5.575-2.087-2.292-3.183-2.244a16.775,16.775,0,0,1-3.776-.842l-1.316,3.771-2.286,2.411-1.425,2.5Z" transform="translate(-2581.944 -3172.868)"/></g></g><path class="j" d="M2183.193,3765.7h42.524v5.877h-42.524V3765.7Z" transform="translate(-2136.245 -3701.089)"/><path class="q" d="M2100.012,3237.278a2.648,2.648,0,0,0-2.434-2.244h-6.151v3.971h4.568v24.962h4.017v-26.689Z" transform="translate(-2053.064 -3220.071)"/><g transform="translate(0 35.329)"><g class="r" transform="translate(0 0)"><path class="s" d="M1814.38,3461.522a8.793,8.793,0,0,1,8.788-8.789h46.571a8.793,8.793,0,0,1,8.788,8.789V3479.1a8.793,8.793,0,0,1-8.788,8.789h-46.571a8.793,8.793,0,0,1-8.788-8.789v-17.578Z" transform="translate(-1801.936 -3452.733)"/></g></g><g transform="translate(12.445 35.329)"><g class="t" transform="translate(0 0)"><path class="u" d="M1755.468,3545.165a1.2,1.2,0,0,1,1.2-1.2h10.193a1.2,1.2,0,1,1,0,2.4h-10.193a1.2,1.2,0,0,1-1.2-1.2Z" transform="translate(-1760.979 -3535.43)"/><path class="u" d="M1755.468,3587.28a1.2,1.2,0,0,1,1.2-1.2h10.193a1.2,1.2,0,1,1,0,2.4h-10.193a1.2,1.2,0,0,1-1.2-1.2Z" transform="translate(-1760.979 -3573.604)"/><path class="u" d="M1755.468,3629.39a1.2,1.2,0,0,1,1.2-1.2h10.193a1.2,1.2,0,1,1,0,2.4h-10.193a1.2,1.2,0,0,1-1.2-1.2Z" transform="translate(-1760.979 -3611.775)"/><path class="u" d="M1755.468,3671.5a1.2,1.2,0,0,1,1.2-1.2h10.193a1.2,1.2,0,1,1,0,2.4h-10.193a1.2,1.2,0,0,1-1.2-1.2Z" transform="translate(-1760.979 -3649.949)"/><path class="u" d="M1755.468,3713.619a1.2,1.2,0,0,1,1.2-1.2h10.193a1.2,1.2,0,1,1,0,2.4h-10.193a1.2,1.2,0,0,1-1.2-1.2Z" transform="translate(-1760.979 -3688.124)"/></g></g><path class="v" d="M1993.431,3551.247a2.892,2.892,0,0,1,2.891-2.892h20.663a2.893,2.893,0,0,1,2.891,2.892v5.782a2.893,2.893,0,0,1-2.891,2.891h-20.663a2.892,2.892,0,0,1-2.891-2.891v-5.782Z" transform="translate(-1964.236 -3504.08)"/><g transform="translate(93.121 28.736)"><g class="w"><path class="x" d="M2716.792,3386.151a3.886,3.886,0,0,0-3.884-3.884h-32.28a3.887,3.887,0,0,0-3.885,3.884v7.77a3.886,3.886,0,0,0,3.885,3.884h32.28a3.886,3.886,0,0,0,3.884-3.884v-7.77Z" transform="translate(-2676.744 -3382.267)"/></g></g><path class="y" d="M3148.923,3736.895a1.414,1.414,0,0,0-1.414-1.414h-49.875a1.414,1.414,0,0,0-1.413,1.414v2.826a1.414,1.414,0,0,0,1.413,1.414h49.875a1.414,1.414,0,0,0,1.414-1.414v-2.826Z" transform="translate(-2963.856 -3673.7)"/><path class="y" d="M3336.948,3741.073a.751.751,0,0,0-1.037-.223l-1.262.814a.75.75,0,0,0-.223,1.037l9.829,15.229a.751.751,0,0,0,1.038.223l1.261-.813a.752.752,0,0,0,.224-1.038l-9.83-15.228Z" transform="translate(-3179.667 -3678.458)"/><path class="y" d="M3409.61,3741.073a.751.751,0,0,0-1.038-.223l-1.262.814a.751.751,0,0,0-.224,1.037l9.83,15.229a.751.751,0,0,0,1.038.223l1.261-.813a.751.751,0,0,0,.223-1.038l-9.829-15.228Z" transform="translate(-3245.531 -3678.458)"/><path class="y" d="M3483.865,3741.073a.751.751,0,0,0-1.037-.223l-1.261.814a.75.75,0,0,0-.224,1.037l9.829,15.229a.75.75,0,0,0,1.037.223l1.261-.813a.751.751,0,0,0,.223-1.038l-9.829-15.228Z" transform="translate(-3312.841 -3678.458)"/><path class="y" d="M3559.584,3741.073a.751.751,0,0,0-1.038-.223l-1.261.814a.75.75,0,0,0-.223,1.037l9.829,15.229a.75.75,0,0,0,1.037.223l1.261-.813a.752.752,0,0,0,.224-1.038l-9.83-15.228Z" transform="translate(-3381.475 -3678.458)"/><path class="y" d="M3633.613,3741.069a.745.745,0,0,0-1.029-.221l-1.25.807a.744.744,0,0,0-.221,1.029l9.836,15.239a.745.745,0,0,0,1.029.222l1.25-.808a.743.743,0,0,0,.222-1.028l-9.836-15.24Z" transform="translate(-3448.598 -3678.457)"/><g transform="translate(93.749 28.736)"><g class="z" transform="translate(0)"><path class="aa" d="M2632.668,3391.572a9.31,9.31,0,0,1,9.305-9.305h28.369a9.309,9.309,0,0,1,9.3,9.305v13.088a9.31,9.31,0,0,1-9.3,9.306h-28.369a9.31,9.31,0,0,1-9.305-9.306v-13.088Z" transform="translate(-2637.419 -3382.267)"/></g></g><path class="ab" d="M2626.2,3432.67a29.195,29.195,0,1,0,29.2,29.195,29.212,29.212,0,0,0-29.2-29.195Z" transform="translate(-2511.333 -3399.218)"/><path class="ac" d="M2809.627,3635.241a10.244,10.244,0,1,0,10.271,10.244,10.262,10.262,0,0,0-10.271-10.244Z" transform="translate(-2694.765 -3582.838)"/><path class="ab" d="M1877.636,3692.216a12.89,12.89,0,1,0,12.9,12.89,12.9,12.9,0,0,0-12.9-12.89Z" transform="translate(-1847.583 -3634.482)"/><path class="ac" d="M1960.758,3784.362a4.27,4.27,0,1,0,4.318,4.27,4.3,4.3,0,0,0-4.318-4.27Z" transform="translate(-1930.705 -3718.008)"/></g></g></svg>